<?xml version="1.0" encoding="utf-8"?>
<svg xmlns="http://www.w3.org/2000/svg" id="Wordmark" version="1.1" viewBox="0 0 654.16 150.56">
  
  <path d="M163.28,92.13c0,25.8-45.89,54.88-119.12,54.88-42.8,0-48.41-5.9-34.43-14.4,17.89-10.87,30.8-16.57,51.04-21.9,12.99-3.42,24.42-5.32,13.54-1.88-14.1,4.45-27.94,10.08-40.54,16.94-16.97,9.25-7.19,14.97,26.46,14.84,59.79-.24,80.62-28.15,80.62-42.87s-27.18-38.41-38.82-51.19c-9.69-10.64-8.32-20.27,6.19-27.3,6.62-3.21,35.64-16.7,64.75-16.7,23.48,0,26.85,5.61,18.14,11.22-4.5,2.9-7.76,4.87-15.36,7.11-3.43,1.01-10.18,2.64-5.26-1.42,6.99-5.77,3.52-8.69-9.61-8.69s-21.92,2.02-30.68,5.92c-8.26,3.68-17.4,8.55-7.92,19.3,24.29,27.53,40.98,37.49,40.98,56.14ZM650.39,134.16h-116.03c-17.64,0-25.41-6.01-27.91-13.71-.24-.75-.33-.79-1.07-.53-11.98,4.25-18.98,6.42-36.18,11.97-14.34,4.63-16.98,2.86-8.35-11,3.03-4.87,7.33-10.56,13.37-18.02.33-.41.26-.58-.26-.65-.07,0-.13-.02-.19-.03-.37-.06-.33-.07-.63.16-12.08,9.02-32,21.17-48.79,29.81-12.98,6.68-20.05,7.5-10.12-11.27.32-.61.04-.89-.57-.56-11.1,6.01-21.6,11.55-24.39,12.74-12.72,5.42-16.3,5.53-11.82-4.45.87-1.94,1.76-3.85,2.65-5.7.29-.61.02-.87-.58-.55-5.05,2.75-11.54,6.17-18.72,9.71-13.85,6.82-17.64,6.09-13.76-5.24.92-2.67,2-5.16,3.22-7.5.32-.61.04-.88-.57-.56-10.25,5.48-20.18,10.3-29.85,14.34-21.93,9.15-21.61,7.97-18.27-1.89,1.75-5.17,4.71-11.04,8.27-17.11.36-.61.06-.92-.56-.58-14.13,7.76-31.84,17.18-35.65,18.8-15.41,6.56-17.02,4.74-12.28-5.16,2.97-6.2,6.27-11.46,10.12-16.86.43-.6.12-.96-.53-.61-12.93,6.83-25.06,12.97-36.46,18.7-21.23,10.66-21.61,7.97-18.27-1.89,3.72-10.99,10.67-22.12,18.73-33.61.39-.56.16-.87-.49-.63-5.4,2-10.62,3.58-15.96,5.06-.66.18-1.21.66-1.5,1.28-.74,1.64-1.67,3.43-2.81,5.37-11.95,20.31-29.56,29.69-43.77,32.37-7.05,1.33-10.88-.62-10.11-7.56,2.11-18.98,12.36-31.71,37.13-41.12,11.94-4.54,19.64-4.44,21.34.57,1.03,3,5.6,3.2,20.73-2.78.69-.27,1.28-.73,1.72-1.33,23.83-32.74,40.64-49.56,67.65-55.28,6.91-1.46,18-4.4.99,13.19-10.74,11.1-29.72,26.4-50.03,38.13-.51.29-.94.69-1.27,1.17-6.29,9.19-12.49,19.3-18.1,29.83-4.15,7.79-1.22,6.97,4.06,4.52,15.7-7.29,27.53-13.13,35.35-17.1.5-.26.95-.62,1.3-1.07,5.57-7.09,6.45-7.46,16.3-10.32,4.17-1.21,8.86-1.06,5.62,3.02-4.95,6.22-10.78,13.6-17.55,24.35-3.23,5.13-.87,5.34,8.35.62,3.24-1.66,13.28-6.96,21.95-11.6.57-.3,1.05-.74,1.41-1.28,3.46-5.21,7.06-10.32,10.41-15,4.34-6.05,8.45-11.62,12.37-16.74.25-.33.18-.48-.24-.48-20.85.27-29.94,3.28-45.82,6.47-2.71.54-5.36.1-3.82-2.2,1.72-2.57,2.69-3.68,4.51-5.48,2.01-1.99,4.48-3.45,7.31-3.45h40.18c1.99,0,1.81.09,3.05-1.47,4.85-6.09,9.4-11.43,13.71-16.05,6.79-7.29,10.73-9.75,18.4-11.98,12.75-3.7,9.86-.35.65,9.97-5.95,6.66-11.43,13-16.48,19.05-.27.33-.2.49.23.49h105.01c3.21,0,3.54,2.71.46,3.6l-28.18,8.18c-2.66.77-3.17-.55-1.63-2.85.92-1.38,1.63-2.34,2.37-3.21.6-.71.44-1.08-.5-1.08h-80.15c-1.97,0-1.79-.09-3.03,1.45-14.83,18.3-25.16,33.57-30.82,45.83-3.32,7.2.97,5.16,10.44.7,7.34-3.45,14.51-6.84,22.11-10.67.96-.49,1.86-1.14,2.62-1.9,12.43-12.5,28.05-17.18,32.73-18.2,8.75-1.91,14.84-1.14,18.44,5.29.5.89.59,1.78-.49,3.5-4.02,6.38-6.98,11.42-10.93,18.58-2.93,5.3,1.27,6.36,10.49,1.64,1.5-.77,4.47-2.36,8.09-4.32.59-.32,1.09-.79,1.44-1.36,2.6-4.15,5.12-7.78,7.64-11.21,6.66-9.06,7.31-9.15,19.16-12.58,4.17-1.21,8.85-1.21,5.67,2.92-5.42,7.06-10.87,14.31-17.14,24.64-3.14,5.18.12,5.35,9.04.08,5.88-3.48,14.32-8.6,22.82-14.32.69-.46.7-.56.22-1.23-3.75-5.16,1.3-14.88,19.85-20.66,10.17-3.17,8.79,5.51,5.19,6.56-11.21,3.28-6.65,12.47-.02,12.03,2.4-.16,3.81.92,2.44,2.28-2.28,2.26-5.21,5.13-7.7,8.4-6.76,8.87-11.27,15.59-.61,12.3,7.45-2.3,13.45-4.24,18.21-5.82.56-.19.56-.18.57-.77.01-.41.03-.82.06-1.23.76-10.23,9.36-15.84,18.23-20.69,18.64-10.19,37.91-6.01,38.64,3.78.24,3.21-.49,4.06-5.66,6.24-2.59,1.1-19.39,7.29-30.82,11.49-.59.22-.59.22-.54.84.73,9.83,7.61,14.22,26.58,14.46,23.52.3,75.73,1.35,89.3,1.52,1.2.01,2.35.27,3.41.74l5.99,2.67c.57.25.32,1.12-.32,1.12ZM264.98,72.34c-.22.29-.17.38.16.18,9.99-6.09,18.76-12.86,29.23-22.09,20.66-18.2,1.57-14.71-16.65,6.03-4.11,4.67-8.41,10.03-12.74,15.88ZM192.59,97.96c-7.23,3.31-14.49,14.08-15.41,19.53-.96,5.67,3.57,7.46,8.38,5.75,5.81-2.05,11.57-9.52,14.84-14.97,6.42-10.71-.04-13.87-7.81-10.32ZM380.88,99.14c-5.63,3.08-9.94,9.61-11.92,13.25-3.1,5.7-1.58,8.48,6.46,5.46,2.36-.88,4.95-2.05,8.24-3.63.74-.35,1.34-.93,1.74-1.65,1.56-2.86,3.01-5.36,4.25-7.33.47-.75.89-1.41,1.29-2,.35-.53.43-1.2.21-1.8-1.39-3.73-5.67-4.82-10.27-2.3ZM525.72,106.32c-.05.37.04.44.39.32,6.67-2.24,14.78-4.85,16.85-5.74.95-.41,1.08-.88.91-1.45-1.44-4.83-9.01-4.02-12.54-1.93-3.69,2.18-5.06,4.93-5.61,8.8Z"/>
</svg>